<svg xmlns="http://www.w3.org/2000/svg" width="120" height="33" viewBox="0 0 120 33" xmlns:xlink="http://www.w3.org/1999/xlink">
  <defs>
    <path id="a" d="M.138 6.642H82.87V.15H.14z"/>
  </defs>
  <g fill="none" fill-rule="evenodd">
    <g transform="translate(37.083 26.25)">
      <mask id="b" fill="#fff">
        <use xlink:href="#a"/>
      </mask>
      <path fill="#173468"
            d="M.138 6.565h3.484V5.64H1.315V3.99H3.41v-.926H1.316v-1.45h2.29V.69H.138v5.875zm4.615 0H5.88V2.23H4.753v4.335zm0-5.127H5.88V.362H4.753v1.076zm2.355 5.127h1.127v-2.12c0-.558.177-1.44.993-1.44.725 0 .733.715.733 1.245v2.315h1.128V3.83c0-.978-.445-1.7-1.472-1.7-.59 0-1.07.193-1.423.69h-.018v-.59H7.108v4.335zm5.817-2.592c.05-.58.37-1.02 1.002-1.02s.885.472.918 1.02h-1.92zm2.677 1.432c-.42.235-.89.438-1.44.438-.698 0-1.186-.397-1.237-1.096h2.997c0-1.515-.454-2.617-2.062-2.617-1.347 0-2.01 1.034-2.01 2.29 0 1.423.832 2.247 2.263 2.247.606 0 1.077-.118 1.49-.345v-.917zm4.563-1.466h.557c.59 0 1.212.117 1.212.883 0 .682-.666.817-1.212.817h-.557v-1.7zm0-2.325h.455c.54 0 1.137.05 1.137.733 0 .607-.615.716-1.112.716h-.48v-1.45zm-1.177 4.95h2.054c.74 0 2.07-.218 2.07-1.7 0-.724-.547-1.263-1.346-1.338V3.51c.7-.126 1.17-.615 1.17-1.314C22.935.908 21.8.69 21.04.69h-2.055v5.875zm5.255-3.14c.378-.286.858-.47 1.338-.47.666 0 .978.234.978.934h-.624c-.47 0-1.027.042-1.457.252-.428.21-.74.588-.74 1.236 0 .826.75 1.29 1.515 1.29.514 0 1.078-.27 1.34-.75h.016c.01.133.01.42.05.647h.993c-.025-.337-.04-.64-.05-.968-.007-.32-.016-.648-.016-1.086v-.553c0-1.28-.547-1.827-1.87-1.827-.48 0-1.068.126-1.506.328l.035.967zm.572 1.887c0-.666.75-.75 1.254-.75h.488c0 .336-.05.65-.235.893-.178.236-.447.388-.793.388-.405 0-.715-.16-.715-.53zm3.912 1.253h1.127v-2.12c0-.558.176-1.44.994-1.44.724 0 .733.715.733 1.245v2.315h1.128V3.83c0-.978-.447-1.7-1.473-1.7-.59 0-1.07.193-1.423.69h-.017v-.59h-1.068v4.335zm5.137 0h1.126V4.46h.017l1.45 2.105h1.43l-1.82-2.398 1.618-1.936h-1.33l-1.347 1.735h-.018V.253h-1.126v6.312zm6.907 0H41.9v-3.51h.984V2.23h-.984v-.54c0-.336.117-.664.496-.664.244 0 .388.092.49.15l.09-.923c-.218-.06-.537-.102-.824-.102-.892 0-1.38.607-1.38 1.474v.607h-.833v.825h.834v3.51zm6.812-4.334h-1.127v2.122c0 .556-.178 1.44-.994 1.44-.723 0-.732-.716-.732-1.246V2.23H43.6v2.737c0 .976.447 1.7 1.474 1.7.59 0 1.078-.27 1.423-.69h.016v.588h1.07V2.23zm-1.607-.792h.975V.463h-.975v.975zm-1.735 0h.976V.463h-.976v.975zm4.34 5.127h1.128v-1.59c0-.625 0-1.77.917-1.77.203 0 .405.035.506.093V2.164c-.117-.034-.235-.034-.344-.034-.674 0-1.137.68-1.188 1.085h-.016V2.23h-1v4.335zm6.023-4.275c-.354-.077-.698-.16-1.228-.16-.885 0-1.7.412-1.7 1.346 0 1.567 1.96.985 1.96 1.836 0 .42-.454.53-.74.53-.388 0-.758-.11-1.112-.286l-.066.925c.41.11.848.187 1.278.187.918 0 1.818-.404 1.818-1.414 0-1.566-1.962-1.128-1.962-1.82 0-.37.364-.48.667-.48.413 0 .665.068 1.01.186l.076-.85zm3.122 4.275h3.46V5.64h-2.282V.69h-1.178v5.875zm4.91-2.592c.05-.58.37-1.02 1.003-1.02.632 0 .884.472.918 1.02h-1.92zm2.678 1.432c-.42.235-.892.438-1.44.438-.7 0-1.187-.397-1.238-1.096h2.998c0-1.515-.454-2.617-2.063-2.617-1.346 0-2.01 1.034-2.01 2.29 0 1.423.83 2.247 2.263 2.247.606 0 1.077-.118 1.49-.345v-.917zm2.425-1.02c0-.607.288-1.38 1.012-1.38.733 0 .934.8.934 1.38 0 .598-.21 1.407-.95 1.407-.75 0-.996-.792-.996-1.407zm-1.135 2.18h1.094v-.53h.017c.328.463.85.632 1.33.632 1.33 0 1.818-1.094 1.818-2.282 0-1.196-.488-2.255-1.817-2.255-.59 0-.986.244-1.297.656h-.018V.252h-1.127v6.313zm6.076-2.592c.05-.58.37-1.02 1-1.02.634 0 .886.472.92 1.02h-1.92zm2.677 1.432c-.42.235-.892.438-1.44.438-.7 0-1.187-.397-1.238-1.096h2.996c0-1.515-.454-2.617-2.06-2.617-1.35 0-2.013 1.034-2.013 2.29 0 1.423.832 2.247 2.264 2.247.606 0 1.077-.118 1.49-.345v-.917zm1.215 1.16H77.7v-2.12c0-.558.176-1.44.993-1.44.725 0 .733.715.733 1.245v2.315h1.127V3.83c0-.978-.445-1.7-1.472-1.7-.59 0-1.07.193-1.422.69h-.017v-.59h-1.068v4.335zm5.12 0h1.18V5.387h-1.18v1.178z"
            mask="url(#b)"/>
    </g>
    <path fill="#173468"
          d="M37.222 18.968h2.763v-5.232h1.165c2.96 0 5.31-1.164 5.31-4.383 0-3.297-2.743-4.165-5.744-4.165h-3.494v13.78zm2.763-11.61h.968c1.42 0 2.625.554 2.625 2.153 0 1.6-1.243 2.054-2.625 2.054h-.968V7.36zm34.818 11.61h2.482v-1.286c.732.99 1.87 1.523 3.046 1.523 3.05 0 4.308-2.567 4.308-5.35 0-2.804-1.155-5.292-4.195-5.292-1.343 0-2.385.64-3.08 1.597v-6h-2.56V18.97zm2.567-5.113c0-1.422.685-3.238 2.382-3.238 1.718 0 2.235 1.875 2.235 3.238 0 1.4-.537 3.296-2.274 3.296-1.757 0-2.343-1.854-2.343-3.295zm31.303 5.113V4.16h2.646v8.707h.04l3.157-4.067h3.12l-3.79 4.542 4.263 5.626h-3.356l-3.395-4.936h-.04v4.936h-2.647zm-11.61 0V8.8h2.51v1.382h.038c.83-1.164 1.955-1.62 3.337-1.62 2.41 0 3.455 1.7 3.455 3.99v6.416h-2.645v-5.43c0-1.243-.02-2.92-1.717-2.92-1.916 0-2.33 2.072-2.33 3.374v4.976h-2.646zM65.442 8.938l-.177 1.994c-.81-.276-1.4-.434-2.37-.434-.71 0-1.56.257-1.56 1.125 0 1.62 4.602.593 4.602 4.265 0 2.37-2.113 3.317-4.265 3.317-1.007 0-2.033-.178-3-.435l.157-2.17c.83.413 1.698.67 2.606.67.67 0 1.737-.257 1.737-1.244 0-1.994-4.6-.63-4.6-4.303 0-2.192 1.916-3.16 3.99-3.16 1.242 0 2.05.198 2.88.376zm2.89 6.97v-5.173h-1.955V8.8h1.955V6.768l2.645-.85v2.884h2.35v1.935h-2.35v4.74c0 .867.237 1.676 1.243 1.676.474 0 .93-.097 1.205-.275l.08 2.093c-.554.157-1.166.237-1.956.237-2.073 0-3.217-1.283-3.217-3.297zM49.374 13.63c0-1.566.828-3.112 2.546-3.112 1.738 0 2.567 1.505 2.567 3.112 0 1.75-.533 3.62-2.567 3.62-2.013 0-2.546-1.89-2.546-3.62zm-2.764.325c0 2.98 1.955 5.357 5.31 5.357 3.376 0 5.33-2.377 5.33-5.357 0-3.424-2.31-5.498-5.33-5.498-3 0-5.31 2.074-5.31 5.498zm41.675 2.07c0-1.558 1.758-1.756 2.942-1.756h1.145c0 .79-.118 1.52-.552 2.092-.415.553-1.047.908-1.857.908-.947 0-1.678-.375-1.678-1.244zm-1.342-4.42c.888-.673 2.014-1.107 3.14-1.107 1.56 0 2.29.553 2.29 2.192H90.91c-1.105 0-2.407.098-3.415.592-1.006.494-1.736 1.382-1.736 2.902 0 1.935 1.755 3.02 3.552 3.02 1.204 0 2.527-.63 3.14-1.756h.04c.018.316.018.987.117 1.52h2.33c-.06-.79-.1-1.5-.12-2.27-.02-.75-.04-1.52-.04-2.548v-1.302c0-3-1.282-4.285-4.382-4.285-1.125 0-2.507.297-3.534.77l.08 2.27zM11.977.467L24.434.14C14.77 5.915 11.52 14.77 10.71 20.22H0C.785 14.245 5.628 4.344 11.977.468m18.118 7.857c-4.93 3.09-6.37 7.955-6.67 9.814h-3.206c.554-3.272 2.612-7.51 5.652-9.733.026-.02 4.223-.082 4.223-.082"/>
    <path fill="#D7232D" d="M20.54 5.27l7.3-.206c-5.992 3.164-8.978 9.804-9.48 13.904h-5.55c.47-3.362 2.77-9.98 7.73-13.7"/>
  </g>
</svg>
