<svg xmlns="http://www.w3.org/2000/svg" width="56" height="30" viewBox="0 0 56 30">
  <g fill="none" fill-rule="evenodd">
    <path fill="#737373" d="M3.69230769,2.87179487 L51.6923077,2.87179487 L51.6923077,26.2564103 L3.69230769,26.2564103 L3.69230769,2.87179487 Z M4.64957265,0 L50.7350427,0 C54.2905983,0 55.3846154,2.18803419 55.3846154,4.78632479 L55.3846154,24.4786325 C55.3846154,27.0769231 54.2905983,29.1282051 50.7350427,29.1282051 L4.64957265,29.1282051 C1.23076923,29.1282051 0,27.0769231 0,24.4786325 L0,4.78632479 C0,2.18803419 1.23076923,0 4.64957265,0 Z"/>
    <g transform="translate(6.427 6.564)">
      <path fill="#737373" d="M3.55555556,6.83760684 L3.55555556,2.32478632 L14.7692308,2.32478632 L18.0512821,2.32478632 C17.9145299,0.136752137 16.5470085,0 13.9487179,0 L4.23931624,0 C1.09401709,0 0,0.820512821 0,3.82905983 L0,5.1965812 C0,8.20512821 1.09401709,9.02564103 4.23931624,9.02564103 L14.4957265,9.02564103 L14.4957265,13.4017094 L0,13.4017094 C0.136752137,15.7264957 1.23076923,15.8632479 4.1025641,15.8632479 L13.9487179,15.8632479 C17.0940171,15.8632479 18.0512821,15.1794872 18.0512821,12.1709402 L18.0512821,10.5299145 C18.0512821,7.52136752 17.0940171,6.83760684 13.9487179,6.83760684 L3.55555556,6.83760684 Z"/>
      <g transform="translate(21.88)">
        <path fill="#737373" d="M13.1282051,0 L4.1025641,0 C0.957264957,0 0,0.683760684 0,3.82905983 L0,12.1709402 C0,15.1794872 0.957264957,15.8632479 4.1025641,15.8632479 L16.4102564,15.8632479 C19.008547,15.8632479 20.2393162,15.3162393 20.5128205,13.4017094 L3.82905983,13.4017094 L3.82905983,2.32478632 L11.6239316,2.32478632 L13.1282051,0 Z"/>
        <path fill="#9C1F2E" d="M16.6837607,11.6239316 L20.5128205,11.6239316 L20.5128205,3.82905983 C20.5128205,0.683760684 19.5555556,0 16.4102564,0 L15.3162393,0 L13.8119658,2.32478632 L16.6837607,2.32478632 L16.6837607,11.6239316 Z"/>
      </g>
    </g>
  </g>
</svg>
